# xmcd CD database file
#
# Track frame offsets:
#	182
#	53564
#	68929
#	79096
#	95910
#	123367
#	155567
#	186412
#	206181
#	227158
#
# Disc length: 3318 seconds
#
# Revision: 6
# Processed by: cddbd v1.5.1PL0 Copyright (c) Steve Scherf et al.
# Submitted via: CDex 1.51
#
DISCID=8f0cf40a
DTITLE=Berliner Philharmonic - Herbert Von Karajan - Albinoni - Adagio, Pachelbel - Canon
DYEAR=1984
DGENRE=Classical
TTITLE0=弦楽とオルガンのためのアダージョ・ト短調   アルビノーニ  編曲：ジャゾット
TTITLE1=フルート協奏曲第2番ト短調 "夜"  1. Largo - Fantasmi. Presto  ビバルディ
TTITLE2=フルート協奏曲第2番ト短調 "夜"  2. Largo - Presto  ビバルディ
TTITLE3=フルート協奏曲第2番ト短調 "夜"  3. Il sono. Largo - Allegro  ビバルディ
TTITLE4=G線上のアリア   バッハ
TTITLE5=カノンとジーグ・ニ長調   パッヘルベル  編曲：ザイフェルト
TTITLE6=歌劇「オルフェオとエウリディーチェ」より  精霊の踊り
TTITLE7=セレナータ・ノットゥルナ セレナード第6番ニ長調  1. Marcia. Maestoso  モーツァルト
TTITLE8=セレナータ・ノットゥルナ セレナード第6番ニ長調  2. Menuetto  モーツァルト
TTITLE9=セレナータ・ノットゥルナ セレナード第6番ニ長調  3. Rondeau. Allegretto - Adagio - Allegro  モーツァルト
EXTD=YEAR: 1984
EXTT0=
EXTT1=
EXTT2=
EXTT3=
EXTT4=
EXTT5=
EXTT6=
EXTT7=
EXTT8=
EXTT9=
PLAYORDER=
